# xmcd
#
# Track frame offsets: 
#        150
#        19093
#        34738
#        49048
#        67114
#        81433
#        97428
#        112018
#        125641
#        151983
#        165030
#        177255
#        190303
#        206041
#        222063
#        240563
#        257117
#        280129
#        295725
#        307445
#
# Disc length: 4268 seconds
#
# Revision: 0
# Processed by: cddbd v1.5.2PL0 Copyright (c) Steve Scherf et al.
# Submitted via: ExactAudioCopy v1.1
#
DISCID=2f10aa14
DTITLE=Nina Simone - 60 Essential Recordings
DYEAR=1900
DGENRE=Blues
TTITLE0=I Loves You Porgy
TTITLE1=Solitaire
TTITLE2=He's got the whole world in his hands
TTITLE3=For All We Know
TTITLE4=African Mailman
TTITLE5=Black Is The Color of My True Loves Hair
TTITLE6=Exactly Like You
TTITLE7=The Other Woman
TTITLE8=I Don't Want Hime Anymbre
TTITLE9=Summertime (Instrumental)
TTITLE10=Summertime (Vocal)
TTITLE11=Cotton-Eyeed Joe
TTITLE12=Wild Is the Wind
TTITLE13=Fine and Mellow
TTITLE14=Rags and Old Iron
TTITLE15=No Good Man
TTITLE16=I'll Look Around
TTITLE17=I Love to Love
TTITLE18=Work Song
TTITLE19=Where Can I Go Without You?
EXTD=
EXTT0=
EXTT1=
EXTT2=
EXTT3=
EXTT4=
EXTT5=
EXTT6=
EXTT7=
EXTT8=
EXTT9=
EXTT10=
EXTT11=
EXTT12=
EXTT13=
EXTT14=
EXTT15=
EXTT16=
EXTT17=
EXTT18=
EXTT19=
PLAYORDER=
